HIERARCHY
ROOT hip
{
	OFFSET 0.000000 0.000000 0.000000 
	CHANNELS 6 Xposition Yposition Zposition Xrotation Zrotation Yrotation
	JOINT abdomen
	{
		OFFSET 0.000000 3.402643 0.000000 
		CHANNELS 3 Xrotation Zrotation Yrotation
		JOINT chest
		{
			OFFSET 0.000000 8.438565 -0.680529 
			CHANNELS 3 Xrotation Zrotation Yrotation
			JOINT neck
			{
				OFFSET 0.000000 10.207942 -0.272212 
				CHANNELS 3 Xrotation Zrotation Yrotation
				JOINT head
				{
					OFFSET 0.000000 3.130431 0.000000 
					CHANNELS 3 Xrotation Zrotation Yrotation
					End Site
					{
						OFFSET 0.000000 3.130435 0.000000 
					}
				}
			}
			JOINT lCollar
			{
				OFFSET 3.470700 6.669187 -0.816635 
				CHANNELS 3 Yrotation Zrotation Xrotation
				JOINT lShldr
				{
					OFFSET 3.198488 0.000000 0.000000 
					CHANNELS 3 Zrotation Yrotation Xrotation
					JOINT lForeArm
					{
						OFFSET 10.139888 0.000000 0.000000 
						CHANNELS 3 Yrotation Zrotation Xrotation
						JOINT lHand
						{
							OFFSET 8.370511 0.000000 0.000000 
							CHANNELS 3 Zrotation Yrotation Xrotation
							End Site
							{
								OFFSET 4.083176 0.000000 0.000000 
							}
						}
					}
				}
			}
			JOINT rCollar
			{
				OFFSET -3.470700 6.669187 -0.816635 
				CHANNELS 3 Yrotation Zrotation Xrotation
				JOINT rShldr
				{
					OFFSET -3.198488 0.000000 0.000000 
					CHANNELS 3 Zrotation Yrotation Xrotation
					JOINT rForeArm
					{
						OFFSET -10.139888 0.000000 0.000000 
						CHANNELS 3 Yrotation Zrotation Xrotation
						JOINT rHand
						{
							OFFSET -8.370511 0.000000 0.000000 
							CHANNELS 3 Zrotation Yrotation Xrotation
							End Site
							{
								OFFSET -4.083176 0.000000 0.000000 
							}
						}
					}
				}
			}
		}
	}
	JOINT lThigh
	{
		OFFSET 5.308129 -1.633274 1.361059 
		CHANNELS 3 Xrotation Zrotation Yrotation
		JOINT lShin
		{
			OFFSET -2.041588 -20.007561 0.000000 
			CHANNELS 3 Xrotation Zrotation Yrotation
			JOINT lFoot
			{
				OFFSET 0.000000 -19.190928 -1.224953 
				CHANNELS 3 Xrotation Yrotation Zrotation
				End Site
				{
					OFFSET 0.000000 -2.449906 4.627600 
				}
			}
		}
	}
	JOINT rThigh
	{
		OFFSET -5.308129 -1.633274 1.361059 
		CHANNELS 3 Xrotation Zrotation Yrotation
		JOINT rShin
		{
			OFFSET 2.041588 -20.007561 0.000000 
			CHANNELS 3 Xrotation Zrotation Yrotation
			JOINT rFoot
			{
				OFFSET 0.000000 -19.190928 -1.224953 
				CHANNELS 3 Xrotation Yrotation Zrotation
				End Site
				{
					OFFSET 0.000000 -2.449906 4.627600 
				}
			}
		}
	}
}
MOTION
Frames: 9
Frame Time: 0.050000
3.176997 42.682686 -1.524539 1.614260 1.650030 -1.630150 -3.339600 -2.861610 -2.539510 2.626950 -1.494140 -1.972910 -0.028617 0.811878 -0.155635 -2.958560 0.903542 -0.252972 -4.141850 -6.798530 -1.187090 -70.640503 11.755600 17.160200 -6.668820 -7.998360 2.351060 11.153100 -5.231110 -15.121100 -0.946592 5.303320 10.067400 70.581200 12.489000 -1.444510 18.639400 11.078900 19.898001 -2.385210 1.580950 0.055042 -7.108222 0.195415 -13.150477 10.745514 -3.884416 -0.789443 -6.601238 20.326283 0.575889 -11.227798 -3.954603 9.811018 9.255952 -0.733824 -0.065938 3.030955 -11.214026 5.132763 
4.389810 40.609703 2.829580 5.619226 0.593741 -5.333113 -3.161114 -2.896576 -3.569895 4.387777 -1.488001 -7.757206 2.335373 0.490656 -0.126062 -4.438534 2.234180 16.827991 -4.814051 -9.421023 -1.553141 -57.733002 -3.551906 -9.910354 -40.422310 -17.928034 -5.680172 7.102067 -5.841295 -26.360538 -2.741724 5.047709 10.256231 72.665260 17.108545 -6.983563 56.134487 15.980906 5.195499 -5.786117 1.327950 -5.676996 -28.646002 2.174854 -13.315328 34.809219 -5.449927 -3.929270 -12.507170 24.669121 -1.603293 -21.263969 -1.308967 11.091505 36.210888 -2.937952 1.900226 -15.646454 -21.912313 7.441756 
5.817875 38.218609 7.985526 10.094043 -0.574958 -9.229952 -2.986076 -3.016682 -4.618667 6.440152 -1.498656 -14.404000 5.097580 0.132923 -0.097454 -6.146565 3.777779 36.125145 -5.612885 -12.507599 -1.985984 -42.760223 -21.579361 -41.510208 -80.227333 -29.376993 -15.223038 3.051033 -6.451479 -37.599976 -4.807944 4.726629 10.445872 74.923279 22.324551 -13.588171 99.902115 21.411631 -12.031770 -10.015899 1.309276 -12.198208 -46.268768 6.902622 -13.603935 48.902267 -6.170668 -5.936003 -12.170840 25.442066 -4.997689 -23.452660 -2.058573 12.438653 49.174881 -2.304994 3.894364 -29.188343 -31.528786 8.676055 
6.972937 36.792561 12.452030 11.256046 -0.754729 -7.656636 -3.202736 -3.918825 -3.789448 7.886330 -1.689661 -18.106468 7.114000 0.052653 -0.137677 -7.175091 4.789653 43.417824 -6.333760 -14.990201 -2.354676 -32.950310 -36.192463 -64.262062 -113.043709 -36.158508 -23.820990 -1.000000 -7.061664 -48.839413 -5.994595 4.261927 10.265726 74.751465 24.264845 -19.771231 131.405060 22.323481 -25.102192 -15.734454 4.141805 -15.145905 -55.072220 9.560629 -12.190464 53.047932 -6.767105 -6.424535 -8.485417 19.885603 -6.286299 -17.159338 -8.982141 12.409284 51.251774 4.483947 2.166533 -36.585976 -36.851570 10.430191 
7.542677 37.250893 15.258740 6.243600 0.928027 4.100912 -4.106617 -6.204862 0.323867 8.057185 -2.159496 -16.060762 7.572817 0.494843 -0.302389 -6.753379 4.996112 28.120487 -6.848369 -16.139307 -2.572779 -33.566486 -43.217766 -68.639549 -130.143280 -34.420887 -29.955059 -3.544483 -12.155425 -49.240868 -5.417056 3.588155 9.413872 70.111748 19.983154 -24.644562 137.578674 14.721242 -29.299921 -23.502806 11.789626 -11.428844 -45.341034 3.161250 -7.809789 53.812382 -6.854868 -6.480078 -13.263166 22.872301 -0.977733 -8.104037 -13.070017 9.065161 49.843746 20.076502 -4.934421 -30.041891 -27.051985 -1.008898 
7.805992 38.822693 16.865726 -2.425159 3.889981 23.325422 -5.337529 -9.416049 5.850702 7.214555 -2.593483 -10.346192 6.954795 1.282516 -0.547855 -4.817646 6.083061 -0.401382 -7.208306 -16.347866 -2.682260 -41.274651 -44.877949 -60.369534 -136.391647 -30.816450 -34.371532 -5.000000 -1.144026 -46.647297 -3.495944 2.886876 8.126165 62.716351 11.725004 -28.494165 127.048096 1.292516 -27.134306 -31.238184 21.233536 -4.467165 -26.432182 -0.673948 -4.363343 47.050076 -6.461403 -5.527424 -18.077927 25.198339 3.271248 -1.355967 -23.360275 7.785799 60.492165 38.803268 1.420721 -10.459879 -19.945175 -24.607237 
8.112715 40.491688 17.916216 -11.419207 7.208530 45.621002 -6.461198 -12.802350 10.363590 5.916206 -2.730906 -4.031430 5.980085 2.151084 -0.808739 -1.622415 9.412165 -29.550323 -7.491400 -16.203215 -2.746027 -51.111549 -44.496227 -47.987793 -138.825882 -32.413021 -38.099251 -5.266752 43.574711 -53.105255 -0.956676 2.372770 6.756051 55.033260 2.739729 -31.753145 112.430466 -13.864688 -22.440798 -36.383579 28.590315 1.187592 -11.981964 6.200949 -4.275158 39.597904 -5.996710 -4.455578 -17.487724 20.840847 1.069882 -11.702991 -36.144096 11.070529 99.290718 41.677601 35.785477 2.642242 -18.076038 -17.088060 
8.505222 41.950390 18.355654 -19.535736 10.060929 67.308624 -7.402726 -15.509171 12.484187 4.972652 -2.940054 0.740557 5.033823 2.907479 -1.032676 2.011476 13.088536 -53.751934 -7.700506 -15.947765 -2.782372 -60.194668 -43.401920 -36.012547 -139.575500 -37.436275 -41.032040 -4.454048 57.747269 -50.480286 1.561369 2.145997 5.589535 48.803162 -4.899884 -34.268852 100.621117 -27.693558 -17.134075 -37.128857 31.503994 2.969675 -2.731094 18.057802 -6.517003 32.836433 -5.673975 -3.489058 -14.833851 14.294452 -0.143705 -52.944523 -43.195515 28.108606 138.651764 28.235971 57.576317 9.685995 -17.649954 -1.011767 
8.949029 43.068523 17.955025 -26.104000 11.649400 84.888496 -8.177062 -16.655785 11.096436 5.257590 -3.746468 2.058234 4.417390 3.376520 -1.170550 5.121618 14.403156 -69.187607 -7.819740 -15.737700 -2.798430 -66.161690 -42.425873 -27.957602 -139.543076 -41.901360 -42.779976 -3.104485 2.680370 -27.978998 3.440322 2.278081 4.895762 45.584900 -9.415192 -35.742210 97.084877 -37.397598 -12.648622 -31.850595 28.000425 -1.190220 -0.863968 30.292852 -9.444816 23.367785 -5.127210 -2.166882 -10.501538 13.695875 -1.577967 -101.740135 -52.850552 61.968819 -33.929424 154.647812 -122.210442 22.921043 -15.459547 4.893078 
